<mxfile host="app.diagrams.net" agent="Mozilla/5.0 (Windows NT 10.0; Win64; x64) AppleWebKit/537.36 (KHTML, like Gecko) Chrome/129.0.0.0 Safari/537.36" version="24.7.16">
  <diagram id="C5RBs43oDa-KdzZeNtuy" name="Page-1">
    <mxGraphModel dx="2074" dy="1098" grid="1" gridSize="10" guides="1" tooltips="1" connect="1" arrows="1" fold="1" page="1" pageScale="1" pageWidth="827" pageHeight="1169" math="0" shadow="0">
      <root>
        <mxCell id="WIyWlLk6GJQsqaUBKTNV-0" />
        <mxCell id="WIyWlLk6GJQsqaUBKTNV-1" parent="WIyWlLk6GJQsqaUBKTNV-0" />
        <mxCell id="Ep3Vnpgr2quOT0XGha8s-2" style="edgeStyle=orthogonalEdgeStyle;rounded=0;orthogonalLoop=1;jettySize=auto;html=1;exitX=0.5;exitY=1;exitDx=0;exitDy=0;entryX=0.5;entryY=0;entryDx=0;entryDy=0;" edge="1" parent="WIyWlLk6GJQsqaUBKTNV-1" source="Ep3Vnpgr2quOT0XGha8s-0" target="Ep3Vnpgr2quOT0XGha8s-1">
          <mxGeometry relative="1" as="geometry" />
        </mxCell>
        <mxCell id="Ep3Vnpgr2quOT0XGha8s-0" value="начало" style="ellipse;whiteSpace=wrap;html=1;" vertex="1" parent="WIyWlLk6GJQsqaUBKTNV-1">
          <mxGeometry x="93" y="40" width="110" height="30" as="geometry" />
        </mxCell>
        <mxCell id="Ep3Vnpgr2quOT0XGha8s-6" style="edgeStyle=orthogonalEdgeStyle;rounded=0;orthogonalLoop=1;jettySize=auto;html=1;exitX=0.5;exitY=1;exitDx=0;exitDy=0;entryX=0.5;entryY=0;entryDx=0;entryDy=0;" edge="1" parent="WIyWlLk6GJQsqaUBKTNV-1" source="Ep3Vnpgr2quOT0XGha8s-1" target="Ep3Vnpgr2quOT0XGha8s-5">
          <mxGeometry relative="1" as="geometry" />
        </mxCell>
        <mxCell id="Ep3Vnpgr2quOT0XGha8s-1" value="Объявление переменной S" style="rounded=0;whiteSpace=wrap;html=1;" vertex="1" parent="WIyWlLk6GJQsqaUBKTNV-1">
          <mxGeometry x="88" y="90" width="120" height="50" as="geometry" />
        </mxCell>
        <mxCell id="Ep3Vnpgr2quOT0XGha8s-8" style="edgeStyle=orthogonalEdgeStyle;rounded=0;orthogonalLoop=1;jettySize=auto;html=1;exitX=0.5;exitY=1;exitDx=0;exitDy=0;entryX=0.5;entryY=0;entryDx=0;entryDy=0;" edge="1" parent="WIyWlLk6GJQsqaUBKTNV-1" source="Ep3Vnpgr2quOT0XGha8s-5" target="Ep3Vnpgr2quOT0XGha8s-7">
          <mxGeometry relative="1" as="geometry" />
        </mxCell>
        <mxCell id="Ep3Vnpgr2quOT0XGha8s-5" value="Вывод &quot;S: &quot;" style="shape=parallelogram;perimeter=parallelogramPerimeter;whiteSpace=wrap;html=1;fixedSize=1;" vertex="1" parent="WIyWlLk6GJQsqaUBKTNV-1">
          <mxGeometry x="88" y="170" width="120" height="60" as="geometry" />
        </mxCell>
        <mxCell id="Ep3Vnpgr2quOT0XGha8s-10" style="edgeStyle=orthogonalEdgeStyle;rounded=0;orthogonalLoop=1;jettySize=auto;html=1;exitX=0.5;exitY=1;exitDx=0;exitDy=0;entryX=0.5;entryY=0;entryDx=0;entryDy=0;" edge="1" parent="WIyWlLk6GJQsqaUBKTNV-1" source="Ep3Vnpgr2quOT0XGha8s-7" target="Ep3Vnpgr2quOT0XGha8s-9">
          <mxGeometry relative="1" as="geometry" />
        </mxCell>
        <mxCell id="Ep3Vnpgr2quOT0XGha8s-7" value="Ввод S" style="shape=parallelogram;perimeter=parallelogramPerimeter;whiteSpace=wrap;html=1;fixedSize=1;" vertex="1" parent="WIyWlLk6GJQsqaUBKTNV-1">
          <mxGeometry x="88" y="250" width="120" height="60" as="geometry" />
        </mxCell>
        <mxCell id="Ep3Vnpgr2quOT0XGha8s-12" style="edgeStyle=orthogonalEdgeStyle;rounded=0;orthogonalLoop=1;jettySize=auto;html=1;exitX=0.5;exitY=1;exitDx=0;exitDy=0;entryX=0.5;entryY=0;entryDx=0;entryDy=0;" edge="1" parent="WIyWlLk6GJQsqaUBKTNV-1" source="Ep3Vnpgr2quOT0XGha8s-9" target="Ep3Vnpgr2quOT0XGha8s-11">
          <mxGeometry relative="1" as="geometry" />
        </mxCell>
        <mxCell id="Ep3Vnpgr2quOT0XGha8s-25" style="edgeStyle=orthogonalEdgeStyle;rounded=0;orthogonalLoop=1;jettySize=auto;html=1;exitX=1;exitY=0.5;exitDx=0;exitDy=0;entryX=0;entryY=0.5;entryDx=0;entryDy=0;" edge="1" parent="WIyWlLk6GJQsqaUBKTNV-1" source="Ep3Vnpgr2quOT0XGha8s-9" target="Ep3Vnpgr2quOT0XGha8s-20">
          <mxGeometry relative="1" as="geometry" />
        </mxCell>
        <mxCell id="Ep3Vnpgr2quOT0XGha8s-9" value="s.find(&quot; &quot;) != string::npos" style="rhombus;whiteSpace=wrap;html=1;" vertex="1" parent="WIyWlLk6GJQsqaUBKTNV-1">
          <mxGeometry x="85" y="340" width="126" height="80" as="geometry" />
        </mxCell>
        <mxCell id="Ep3Vnpgr2quOT0XGha8s-47" style="edgeStyle=orthogonalEdgeStyle;rounded=0;orthogonalLoop=1;jettySize=auto;html=1;exitX=0.5;exitY=1;exitDx=0;exitDy=0;entryX=0.5;entryY=0;entryDx=0;entryDy=0;" edge="1" parent="WIyWlLk6GJQsqaUBKTNV-1" source="Ep3Vnpgr2quOT0XGha8s-11" target="Ep3Vnpgr2quOT0XGha8s-13">
          <mxGeometry relative="1" as="geometry">
            <Array as="points">
              <mxPoint x="147" y="510" />
              <mxPoint x="100" y="510" />
              <mxPoint x="100" y="1000" />
              <mxPoint x="414" y="1000" />
            </Array>
          </mxGeometry>
        </mxCell>
        <mxCell id="Ep3Vnpgr2quOT0XGha8s-11" value="Вывод &quot;В почте не может быть пробелов&quot;" style="shape=parallelogram;perimeter=parallelogramPerimeter;whiteSpace=wrap;html=1;fixedSize=1;" vertex="1" parent="WIyWlLk6GJQsqaUBKTNV-1">
          <mxGeometry x="40" y="440" width="214" height="50" as="geometry" />
        </mxCell>
        <mxCell id="Ep3Vnpgr2quOT0XGha8s-16" style="edgeStyle=orthogonalEdgeStyle;rounded=0;orthogonalLoop=1;jettySize=auto;html=1;exitX=0.5;exitY=1;exitDx=0;exitDy=0;entryX=0.5;entryY=0;entryDx=0;entryDy=0;" edge="1" parent="WIyWlLk6GJQsqaUBKTNV-1" source="Ep3Vnpgr2quOT0XGha8s-13" target="Ep3Vnpgr2quOT0XGha8s-14">
          <mxGeometry relative="1" as="geometry" />
        </mxCell>
        <mxCell id="Ep3Vnpgr2quOT0XGha8s-13" value="return 0" style="rounded=0;whiteSpace=wrap;html=1;" vertex="1" parent="WIyWlLk6GJQsqaUBKTNV-1">
          <mxGeometry x="354" y="1030" width="120" height="30" as="geometry" />
        </mxCell>
        <mxCell id="Ep3Vnpgr2quOT0XGha8s-14" value="Конец" style="ellipse;whiteSpace=wrap;html=1;" vertex="1" parent="WIyWlLk6GJQsqaUBKTNV-1">
          <mxGeometry x="367.5" y="1080" width="93" height="30" as="geometry" />
        </mxCell>
        <mxCell id="Ep3Vnpgr2quOT0XGha8s-17" value="Да" style="text;html=1;align=center;verticalAlign=middle;whiteSpace=wrap;rounded=0;" vertex="1" parent="WIyWlLk6GJQsqaUBKTNV-1">
          <mxGeometry x="148" y="410" width="60" height="30" as="geometry" />
        </mxCell>
        <mxCell id="Ep3Vnpgr2quOT0XGha8s-19" style="edgeStyle=orthogonalEdgeStyle;rounded=0;orthogonalLoop=1;jettySize=auto;html=1;exitX=0.5;exitY=1;exitDx=0;exitDy=0;entryX=0.5;entryY=0;entryDx=0;entryDy=0;" edge="1" parent="WIyWlLk6GJQsqaUBKTNV-1" source="Ep3Vnpgr2quOT0XGha8s-20" target="Ep3Vnpgr2quOT0XGha8s-21">
          <mxGeometry relative="1" as="geometry" />
        </mxCell>
        <mxCell id="Ep3Vnpgr2quOT0XGha8s-31" style="edgeStyle=orthogonalEdgeStyle;rounded=0;orthogonalLoop=1;jettySize=auto;html=1;exitX=1;exitY=0.5;exitDx=0;exitDy=0;entryX=0;entryY=0.5;entryDx=0;entryDy=0;" edge="1" parent="WIyWlLk6GJQsqaUBKTNV-1" source="Ep3Vnpgr2quOT0XGha8s-20" target="Ep3Vnpgr2quOT0XGha8s-28">
          <mxGeometry relative="1" as="geometry" />
        </mxCell>
        <mxCell id="Ep3Vnpgr2quOT0XGha8s-20" value="s.find(&quot;@&quot;) == string::npos" style="rhombus;whiteSpace=wrap;html=1;" vertex="1" parent="WIyWlLk6GJQsqaUBKTNV-1">
          <mxGeometry x="335" y="340" width="126" height="80" as="geometry" />
        </mxCell>
        <mxCell id="Ep3Vnpgr2quOT0XGha8s-46" style="edgeStyle=orthogonalEdgeStyle;rounded=0;orthogonalLoop=1;jettySize=auto;html=1;exitX=0.5;exitY=1;exitDx=0;exitDy=0;entryX=0.5;entryY=0;entryDx=0;entryDy=0;" edge="1" parent="WIyWlLk6GJQsqaUBKTNV-1" source="Ep3Vnpgr2quOT0XGha8s-21" target="Ep3Vnpgr2quOT0XGha8s-13">
          <mxGeometry relative="1" as="geometry">
            <Array as="points">
              <mxPoint x="397" y="510" />
              <mxPoint x="100" y="510" />
              <mxPoint x="100" y="1000" />
              <mxPoint x="414" y="1000" />
            </Array>
          </mxGeometry>
        </mxCell>
        <mxCell id="Ep3Vnpgr2quOT0XGha8s-21" value="Вывод&amp;nbsp;&lt;div&gt;&quot;В почте должен быть символ @&quot;&lt;/div&gt;" style="shape=parallelogram;perimeter=parallelogramPerimeter;whiteSpace=wrap;html=1;fixedSize=1;" vertex="1" parent="WIyWlLk6GJQsqaUBKTNV-1">
          <mxGeometry x="290" y="440" width="214" height="50" as="geometry" />
        </mxCell>
        <mxCell id="Ep3Vnpgr2quOT0XGha8s-22" value="Да" style="text;html=1;align=center;verticalAlign=middle;whiteSpace=wrap;rounded=0;" vertex="1" parent="WIyWlLk6GJQsqaUBKTNV-1">
          <mxGeometry x="398" y="410" width="60" height="30" as="geometry" />
        </mxCell>
        <mxCell id="Ep3Vnpgr2quOT0XGha8s-27" style="edgeStyle=orthogonalEdgeStyle;rounded=0;orthogonalLoop=1;jettySize=auto;html=1;exitX=0.5;exitY=1;exitDx=0;exitDy=0;entryX=0.5;entryY=0;entryDx=0;entryDy=0;" edge="1" parent="WIyWlLk6GJQsqaUBKTNV-1" source="Ep3Vnpgr2quOT0XGha8s-28" target="Ep3Vnpgr2quOT0XGha8s-29">
          <mxGeometry relative="1" as="geometry" />
        </mxCell>
        <mxCell id="Ep3Vnpgr2quOT0XGha8s-33" style="edgeStyle=orthogonalEdgeStyle;rounded=0;orthogonalLoop=1;jettySize=auto;html=1;exitX=1;exitY=0.5;exitDx=0;exitDy=0;" edge="1" parent="WIyWlLk6GJQsqaUBKTNV-1" source="Ep3Vnpgr2quOT0XGha8s-28" target="Ep3Vnpgr2quOT0XGha8s-32">
          <mxGeometry relative="1" as="geometry">
            <Array as="points">
              <mxPoint x="760" y="380" />
              <mxPoint x="760" y="530" />
              <mxPoint x="414" y="530" />
            </Array>
          </mxGeometry>
        </mxCell>
        <mxCell id="Ep3Vnpgr2quOT0XGha8s-28" value="s.find(&quot; &quot;) != string::npos" style="rhombus;whiteSpace=wrap;html=1;" vertex="1" parent="WIyWlLk6GJQsqaUBKTNV-1">
          <mxGeometry x="585" y="340" width="126" height="80" as="geometry" />
        </mxCell>
        <mxCell id="Ep3Vnpgr2quOT0XGha8s-45" style="edgeStyle=orthogonalEdgeStyle;rounded=0;orthogonalLoop=1;jettySize=auto;html=1;exitX=0.5;exitY=1;exitDx=0;exitDy=0;" edge="1" parent="WIyWlLk6GJQsqaUBKTNV-1" source="Ep3Vnpgr2quOT0XGha8s-29" target="Ep3Vnpgr2quOT0XGha8s-13">
          <mxGeometry relative="1" as="geometry">
            <Array as="points">
              <mxPoint x="647" y="510" />
              <mxPoint x="100" y="510" />
              <mxPoint x="100" y="1000" />
              <mxPoint x="414" y="1000" />
            </Array>
          </mxGeometry>
        </mxCell>
        <mxCell id="Ep3Vnpgr2quOT0XGha8s-29" value="Вывод &quot;Нет домена/имени пользователя&quot;" style="shape=parallelogram;perimeter=parallelogramPerimeter;whiteSpace=wrap;html=1;fixedSize=1;" vertex="1" parent="WIyWlLk6GJQsqaUBKTNV-1">
          <mxGeometry x="540" y="440" width="214" height="50" as="geometry" />
        </mxCell>
        <mxCell id="Ep3Vnpgr2quOT0XGha8s-30" value="Да" style="text;html=1;align=center;verticalAlign=middle;whiteSpace=wrap;rounded=0;" vertex="1" parent="WIyWlLk6GJQsqaUBKTNV-1">
          <mxGeometry x="648" y="410" width="60" height="30" as="geometry" />
        </mxCell>
        <mxCell id="Ep3Vnpgr2quOT0XGha8s-36" style="edgeStyle=orthogonalEdgeStyle;rounded=0;orthogonalLoop=1;jettySize=auto;html=1;exitX=0.5;exitY=1;exitDx=0;exitDy=0;entryX=0.5;entryY=0;entryDx=0;entryDy=0;" edge="1" parent="WIyWlLk6GJQsqaUBKTNV-1" source="Ep3Vnpgr2quOT0XGha8s-32" target="Ep3Vnpgr2quOT0XGha8s-34">
          <mxGeometry relative="1" as="geometry" />
        </mxCell>
        <mxCell id="Ep3Vnpgr2quOT0XGha8s-42" style="edgeStyle=orthogonalEdgeStyle;rounded=0;orthogonalLoop=1;jettySize=auto;html=1;exitX=1;exitY=0.5;exitDx=0;exitDy=0;entryX=0.5;entryY=0;entryDx=0;entryDy=0;" edge="1" parent="WIyWlLk6GJQsqaUBKTNV-1" source="Ep3Vnpgr2quOT0XGha8s-32" target="Ep3Vnpgr2quOT0XGha8s-40">
          <mxGeometry relative="1" as="geometry">
            <Array as="points">
              <mxPoint x="710" y="590" />
              <mxPoint x="710" y="880" />
              <mxPoint x="414" y="880" />
            </Array>
          </mxGeometry>
        </mxCell>
        <mxCell id="Ep3Vnpgr2quOT0XGha8s-32" value="i = s.find(&quot;@&quot;) + 1; i &amp;lt; s.lenght(); i++" style="shape=hexagon;perimeter=hexagonPerimeter2;whiteSpace=wrap;html=1;fixedSize=1;" vertex="1" parent="WIyWlLk6GJQsqaUBKTNV-1">
          <mxGeometry x="331" y="560" width="166" height="60" as="geometry" />
        </mxCell>
        <mxCell id="Ep3Vnpgr2quOT0XGha8s-37" style="edgeStyle=orthogonalEdgeStyle;rounded=0;orthogonalLoop=1;jettySize=auto;html=1;exitX=0.5;exitY=1;exitDx=0;exitDy=0;entryX=0.5;entryY=0;entryDx=0;entryDy=0;" edge="1" parent="WIyWlLk6GJQsqaUBKTNV-1" source="Ep3Vnpgr2quOT0XGha8s-34" target="Ep3Vnpgr2quOT0XGha8s-35">
          <mxGeometry relative="1" as="geometry" />
        </mxCell>
        <mxCell id="Ep3Vnpgr2quOT0XGha8s-38" style="edgeStyle=orthogonalEdgeStyle;rounded=0;orthogonalLoop=1;jettySize=auto;html=1;exitX=1;exitY=0.5;exitDx=0;exitDy=0;entryX=0;entryY=0.5;entryDx=0;entryDy=0;" edge="1" parent="WIyWlLk6GJQsqaUBKTNV-1" source="Ep3Vnpgr2quOT0XGha8s-34" target="Ep3Vnpgr2quOT0XGha8s-32">
          <mxGeometry relative="1" as="geometry">
            <Array as="points">
              <mxPoint x="620" y="680" />
              <mxPoint x="620" y="860" />
              <mxPoint x="220" y="860" />
              <mxPoint x="220" y="590" />
            </Array>
          </mxGeometry>
        </mxCell>
        <mxCell id="Ep3Vnpgr2quOT0XGha8s-34" value="s[i] == &#39;-&#39; &amp;amp;&amp;amp; s[i-1] == &#39;-&#39;" style="rhombus;whiteSpace=wrap;html=1;" vertex="1" parent="WIyWlLk6GJQsqaUBKTNV-1">
          <mxGeometry x="324" y="640" width="180" height="80" as="geometry" />
        </mxCell>
        <mxCell id="Ep3Vnpgr2quOT0XGha8s-43" style="edgeStyle=orthogonalEdgeStyle;rounded=0;orthogonalLoop=1;jettySize=auto;html=1;exitX=0.5;exitY=1;exitDx=0;exitDy=0;entryX=0.5;entryY=0;entryDx=0;entryDy=0;" edge="1" parent="WIyWlLk6GJQsqaUBKTNV-1" source="Ep3Vnpgr2quOT0XGha8s-35" target="Ep3Vnpgr2quOT0XGha8s-13">
          <mxGeometry relative="1" as="geometry">
            <mxPoint x="414" y="980" as="targetPoint" />
            <Array as="points">
              <mxPoint x="414" y="820" />
              <mxPoint x="290" y="820" />
              <mxPoint x="290" y="980" />
              <mxPoint x="414" y="980" />
            </Array>
          </mxGeometry>
        </mxCell>
        <mxCell id="Ep3Vnpgr2quOT0XGha8s-35" value="Вывод&amp;nbsp;&lt;div&gt;&quot;В Доменном имени дефис может быть только одиночным&quot;&lt;/div&gt;" style="shape=parallelogram;perimeter=parallelogramPerimeter;whiteSpace=wrap;html=1;fixedSize=1;" vertex="1" parent="WIyWlLk6GJQsqaUBKTNV-1">
          <mxGeometry x="262" y="740" width="303" height="50" as="geometry" />
        </mxCell>
        <mxCell id="Ep3Vnpgr2quOT0XGha8s-44" style="edgeStyle=orthogonalEdgeStyle;rounded=0;orthogonalLoop=1;jettySize=auto;html=1;exitX=0.5;exitY=1;exitDx=0;exitDy=0;entryX=0.5;entryY=0;entryDx=0;entryDy=0;" edge="1" parent="WIyWlLk6GJQsqaUBKTNV-1" source="Ep3Vnpgr2quOT0XGha8s-40" target="Ep3Vnpgr2quOT0XGha8s-13">
          <mxGeometry relative="1" as="geometry" />
        </mxCell>
        <mxCell id="Ep3Vnpgr2quOT0XGha8s-40" value="Вывод &quot;все правильно&quot;" style="shape=parallelogram;perimeter=parallelogramPerimeter;whiteSpace=wrap;html=1;fixedSize=1;size=16;" vertex="1" parent="WIyWlLk6GJQsqaUBKTNV-1">
          <mxGeometry x="354" y="910" width="120" height="60" as="geometry" />
        </mxCell>
      </root>
    </mxGraphModel>
  </diagram>
</mxfile>
